<?xml version="1.0" encoding="UTF-8" ?>
<!DOCTYPE svg PUBLIC "-//W3C//DTD SVG 1.1//EN" "http://www.w3.org/Graphics/SVG/1.1/DTD/svg11.dtd">
<svg width="685pt" height="495pt" viewBox="0 0 685 495" version="1.1" xmlns="http://www.w3.org/2000/svg">
<g id="#060911ff">
</g>
<g id="#ffffffff">
<path fill="#ffffff" opacity="1.00" d=" M 306.61 76.23 C 318.98 67.18 330.76 57.30 343.11 48.24 C 346.95 49.96 349.87 53.31 353.33 55.70 C 372.79 70.82 392.24 85.94 411.69 101.07 C 401.73 114.46 390.79 127.19 378.41 138.41 C 372.48 143.41 366.29 148.36 359.03 151.25 C 356.09 152.35 352.41 153.37 349.60 151.46 C 345.40 148.55 343.42 143.60 341.71 138.99 C 336.00 121.41 329.40 103.72 318.29 88.77 C 314.93 84.11 310.51 80.41 306.61 76.23 Z" />
<path fill="#ffffff" opacity="1.00" d=" M 284.02 94.02 C 286.58 91.92 289.85 94.30 291.99 95.94 C 301.83 104.13 307.12 116.22 312.12 127.69 C 317.16 139.15 319.20 152.01 326.69 162.31 C 332.26 170.24 341.18 175.97 350.99 176.50 C 362.49 177.26 373.36 171.99 382.62 165.66 C 401.78 152.42 416.49 134.06 430.87 116.02 C 440.51 123.48 450.14 130.95 459.77 138.42 C 458.50 151.45 453.66 163.99 447.32 175.38 C 439.90 188.42 428.92 199.07 416.80 207.75 C 403.08 217.51 387.70 224.59 372.28 231.17 C 336.71 246.14 299.29 257.59 266.61 278.61 C 249.36 289.48 233.88 303.31 221.84 319.79 C 200.53 349.14 191.57 385.72 190.35 421.53 C 182.69 421.52 175.03 421.54 167.38 421.51 C 167.32 386.29 167.38 351.06 167.35 315.84 C 188.46 301.62 207.52 284.17 222.82 263.79 C 254.45 222.25 267.98 167.33 258.59 115.94 C 257.81 113.76 260.12 112.68 261.45 111.50 C 268.98 105.69 276.44 99.77 284.02 94.02 Z" />
<path fill="#ffffff" opacity="1.00" d=" M 167.31 184.80 C 190.29 166.89 213.26 148.95 236.34 131.18 C 241.27 175.23 227.59 221.07 199.18 255.15 C 189.73 266.34 179.54 277.20 167.43 285.56 C 167.22 251.98 167.46 218.39 167.31 184.80 Z" />
<path fill="#ffffff" opacity="1.00" d=" M 481.03 155.70 C 482.62 156.46 484.16 157.36 485.54 158.46 C 496.90 167.25 508.19 176.11 519.47 185.00 C 519.44 207.74 519.49 230.49 519.45 253.24 C 480.25 254.61 441.67 265.88 407.08 284.19 C 365.69 306.36 330.35 338.78 302.19 376.18 C 291.54 390.65 281.39 405.58 273.03 421.52 C 253.54 421.52 234.05 421.55 214.56 421.50 C 215.65 397.87 219.91 373.98 230.43 352.60 C 236.41 340.23 244.46 328.89 254.08 319.09 C 267.27 306.09 283.00 295.95 299.44 287.55 C 332.52 270.98 368.27 260.55 401.51 244.33 C 422.31 234.18 442.26 221.20 457.18 203.25 C 468.69 189.54 476.78 173.07 481.03 155.70 Z" />
<path fill="#ffffff" opacity="1.00" d=" M 426.13 301.30 C 455.10 286.86 487.14 278.54 519.49 277.34 C 519.43 325.39 519.47 373.44 519.47 421.49 C 514.39 421.53 509.33 421.51 504.26 421.53 C 500.60 399.59 495.32 377.43 483.87 358.12 C 476.67 345.95 466.03 334.76 451.95 331.09 C 440.85 327.75 428.68 330.08 418.75 335.75 C 405.67 343.37 396.13 355.88 389.38 369.22 C 381.05 385.66 376.13 403.57 372.23 421.52 C 348.49 421.48 324.74 421.64 301.00 421.44 C 310.38 404.89 321.96 389.68 334.02 375.01 C 359.70 344.98 390.43 318.65 426.13 301.30 Z" />
<path fill="#ffffff" opacity="1.00" d=" M 422.23 363.23 C 427.61 357.31 435.43 352.47 443.72 353.79 C 452.92 355.59 459.34 363.39 463.86 371.07 C 472.52 386.56 476.74 404.10 479.66 421.47 C 452.17 421.56 424.68 421.55 397.19 421.48 C 398.70 412.95 401.42 404.68 404.20 396.49 C 408.59 384.66 413.73 372.73 422.23 363.23 Z" />
</g>
</svg>
